<svg width="178" height="45" xmlns="http://www.w3.org/2000/svg" xmlns:xlink="http://www.w3.org/1999/xlink">
    <defs>
        <path id="a" d="M0 .177h54.718v36.306H0z"/>
        <path id="c" d="M0 44.823h177.302V8.517H0z"/>
    </defs>
    <g fill="none" fill-rule="evenodd">
        <g transform="translate(0 .006)">
            <mask id="b" fill="#fff">
                <use xlink:href="#a"/>
            </mask>
            <path d="M45.525 12.069h-2.698V9.372a9.194 9.194 0 0 0-18.344-.88l-1.108.653a7.48 7.48 0 0 0-13.7 4.155v2.194H7.481a7.48 7.48 0 1 0 0 14.962h10.433c.079.431.339.817.722 1.043l7.72 4.56c.47.277 1.007.424 1.55.424.546 0 1.082-.147 1.552-.424l7.72-4.56c.384-.226.645-.612.723-1.043h7.624a9.193 9.193 0 0 0 9.193-9.194 9.194 9.194 0 0 0-9.193-9.193" fill="#3E84FF" mask="url(#b)"/>
        </g>
        <path d="m29.513 14.028-4.663 1.178a.217.217 0 0 0-.057.398l3.326 1.965c.114.068.26.02.312-.102l1.336-3.144a.216.216 0 0 0-.254-.295" fill="#FFF"/>
        <path d="M43.01 15.188 28.526 6.634a.87.87 0 0 0-.886 0l-2.983 1.76h.001l-1.107.653v.001l-10.396 6.14a.437.437 0 0 0 0 .75l1.119.662v8.434h-.084a.35.35 0 0 0-.35.35v.67h.217v.64h.203v-.64h.625v.64h.201v-.64h.203v-.67a.35.35 0 0 0-.35-.35h-.07V16.95l12.992 7.674c.136.08.307.08.443 0l14.706-8.686a.436.436 0 0 0 0-.75m-1.825.562-12.991 7.673a.22.22 0 0 1-.222 0L14.98 15.751a.219.219 0 0 1 0-.376L27.86 7.768a.437.437 0 0 1 .443 0l12.881 7.607a.219.219 0 0 1 0 .376" fill="#FFF"/>
        <path d="m36.575 20.61-8.492 5.016-8.492-5.015a.436.436 0 0 0-.658.374v9.103a.678.678 0 0 0 .321.563l7.721 4.56a2.189 2.189 0 0 0 2.216 0l7.72-4.56a.643.643 0 0 0 .257-.293.69.69 0 0 0 .064-.27v-9.103a.436.436 0 0 0-.657-.374zm-9.366 13.346a.218.218 0 0 1-.328.187L20.02 30.09a.437.437 0 0 1-.215-.376V22.13c0-.168.182-.272.328-.186l6.968 4.114a.22.22 0 0 1 .108.188v7.71zm2.815-.313a.112.112 0 0 1-.054.094l-.687.406a.218.218 0 0 1-.329-.187v-7.71a.22.22 0 0 1 .106-.188l.8-.47a.11.11 0 0 1 .164.093v7.962zm1.306-.77c0 .037-.02.072-.053.092l-.654.385a.108.108 0 0 1-.164-.093v-7.898c0-.078.04-.15.107-.19l.6-.353a.109.109 0 0 1 .164.093v7.963zm1.527-.967c0 .078-.041.15-.107.19l-.82.483a.108.108 0 0 1-.164-.094v-7.899c0-.078.041-.15.108-.188l.654-.386a.217.217 0 0 1 .329.187v7.707zm3.013-3.739c0 .077-.04.148-.106.187l-1.743 1.03a.218.218 0 0 1-.329-.188V25.41c0-.078.041-.15.107-.19l1.742-1.028a.218.218 0 0 1 .33.188v3.787z" fill="#FFF"/>
        <path d="M121.945 21.376h-4.016l2.008-4.691 2.008 4.691zm-6.113 4.869 1.19-2.772h5.829l1.19 2.772h2.737l-5.757-12.527H118.8l-5.758 12.527h2.79zm-10.265-2.239h-1.902v-8.05h1.902c2.665 0 3.998 1.34 3.998 4.016 0 2.69-1.333 4.034-3.998 4.034zm.195 2.239c1.374 0 2.553-.249 3.536-.746a5.143 5.143 0 0 0 2.248-2.16c.515-.941.773-2.064.773-3.367s-.26-2.422-.782-3.358a5.21 5.21 0 0 0-2.257-2.15c-.983-.498-2.156-.746-3.518-.746h-4.869v12.527h4.869zm-11.136-4.869H90.61l2.008-4.691 2.008 4.691zm-6.113 4.869 1.19-2.772h5.829l1.19 2.772h2.737l-5.757-12.527H91.48l-5.757 12.527h2.79zm-6.872-6.806h-2.63v-3.607h2.63c.7 0 1.22.148 1.564.444.343.296.515.753.515 1.369 0 1.196-.693 1.794-2.079 1.794zm-2.63 6.806v-4.709h2.986c1.362 0 2.422-.344 3.18-1.03.758-.688 1.138-1.647 1.138-2.88 0-1.231-.38-2.19-1.138-2.878-.758-.687-1.818-1.03-3.18-1.03h-5.758v12.527h2.772zm-10.336.16c1.634 0 2.908-.34 3.82-1.022.912-.681 1.368-1.614 1.368-2.799 0-.983-.352-1.753-1.057-2.31-.705-.556-1.863-1.012-3.474-1.368-.687-.154-1.217-.302-1.59-.444-.374-.142-.64-.305-.8-.489-.16-.183-.24-.417-.24-.702 0-.485.207-.867.622-1.146.415-.278.983-.417 1.706-.417 1.267 0 2.476.42 3.625 1.261l.888-1.972c-.485-.438-1.14-.788-1.963-1.048a8.455 8.455 0 0 0-2.568-.391c-.995 0-1.872.168-2.63.506-.758.338-1.347.803-1.768 1.395a3.411 3.411 0 0 0-.63 2.026c0 .687.15 1.264.453 1.732.302.468.782.862 1.439 1.182.657.32 1.537.592 2.639.817.983.213 1.667.433 2.052.658.385.225.577.539.577.941 0 .45-.21.803-.63 1.058-.421.254-1.022.382-1.804.382-1.505 0-2.86-.42-4.069-1.262l-.889 1.972c.58.45 1.31.803 2.186 1.058a9.76 9.76 0 0 0 2.737.382z" fill="#252427"/>
        <mask id="d" fill="#fff">
            <use xlink:href="#c"/>
        </mask>
        <path d="M175.472 26.245h1.83V13.718h-1.83v12.527zm-6.303 0v-11h4.247v-1.527h-10.324v1.528h4.229v10.999h1.848zm-14.797 0v-5.9l6.166 5.9h2.292l-6.628-6.468 6.326-6.06h-2.257l-5.899 5.704v-5.703h-1.83v12.527h1.83zm-6.96 0h1.83V13.718h-1.83v12.527zm-9.36-1.528H135.6v-9.471h2.452c3.08 0 4.62 1.575 4.62 4.726 0 3.163-1.54 4.745-4.62 4.745zm.107 1.528c2.025 0 3.595-.548 4.708-1.644 1.114-1.096 1.67-2.639 1.67-4.629 0-1.99-.556-3.53-1.67-4.62-1.113-1.09-2.683-1.634-4.708-1.634h-4.39v12.527h4.39z" fill="#888" mask="url(#d)"/>
    </g>
</svg>
